PathFileType	4	(X/Y/Z)	C:/Users/beibeiliu/ov580/test_trc/User3\sequence.25_training_dense_left.trc
DataRate	CameraRate	NumFrames	NumMarkers	Units	OrigDataRate	OrigDataStartFrame	OrigNumFrames
120	120	11	19	mm	120	25	145
Frame#	Time	ThumbCMC			ThumbMCP			ThumbIP			ThumbTip			IndexMCP			IndexPIP			IndexTip			MiddleMCP			MiddlePIP			MiddleTip			RingMCP			RingPIP			RingTip			PinkyMCP			PinkyPIP			PinkyTip			BackHand1			BackHand2			BackHand3	
		X0	Y0	Z0	X1	Y1	Z1	X2	Y2	Z2	X3	Y3	Z3	X4	Y4	Z4	X5	Y5	Z5	X6	Y6	Z6	X7	Y7	Z7	X8	Y8	Z8	X9	Y9	Z9	X10	Y10	Z10	X11	Y11	Z11	X12	Y12	Z12	X13	Y13	Z13	X14	Y14	Z14	X15	Y15	Z15	X16	Y16	Z16	X17	Y17	Z17	X18	Y18	Z18	
24	0.2	-182.199	-61.0214	69.7678	-202.908	-47.1437	49.9752	-213.882	-33.6305	32.3515	-222.372	-18.2735	12.202	-165.913	-61.0704	-6.63827	-172.316	-51.7669	-34.0546	-179.66	-25.1671	-49.8811	-137.206	-56.5014	-12.3224	-136.299	-43.8131	-40.8379	-138.107	-14.5873	-65.1874	-116.835	-35.9338	-2.17005	-119.808	-11.462	-17.7042	-125.321	17.8175	-12.1432	-104.247	-22.6698	15.6732	-107.181	-0.365784	12.6092	-124.191	20.4851	18.1053	-119.557	-71.7292	43.1896	-114.004	-76.5448	72.273	-146.791	-78.7865	58.3404	
25	0.208333	-184.542	-66.91	62.6717	-209.789	-55.1507	44.7918	-226.797	-42.416	21.6028	-235.685	-29.0916	6.12284	-171.939	-72.1414	-17.327	-182.513	-66.3744	-44.691	-190.045	-50.5263	-65.9528	-146.492	-62.0849	-24.2375	-150.706	-43.6683	-50.2847	-152.722	-9.40656	-61.4147	-126.65	-40.2686	-10.8479	-131.244	-10.0661	-20.1482	-140.128	17.2461	-5.9791	-115.524	-30.8063	6.3654	-121.561	-5.82669	5.06691	-136.003	12.8475	16.2554	-122.602	-78.8942	37.227	-125.664	-86.0495	62.7749	-155.355	-86.298	48.5023	
26	0.216667	-195.958	-70.6195	50.3513	-216.224	-57.2905	32.1796	-230.399	-45.7752	11.3831	-240.879	-33.4159	-4.07765	-184.796	-75.9499	-22.9284	-188.58	-73.5273	-51.1124	-196.444	-64.4338	-73.5613	-153.465	-60.7949	-34.0777	-161.901	-38.3969	-53.5187	-166.628	-2.67055	-52.2775	-140.132	-45.7189	-22.2416	-143.817	-15.6918	-29.7469	-153.689	11.1946	-14.8093	-118.523	-40.5711	-4.70493	-127.929	-15.4207	-12.5963	-137.942	6.61973	-5.5327	-130.834	-82.202	22.5315	-129.495	-90.8794	56.189	-165.401	-90.6629	37.3159	
27	0.225	-198.588	-67.5542	40.0697	-222.052	-54.0082	24.7638	-240.968	-43.2381	0.272929	-254.499	-31.8917	-12.6196	-188.382	-71.9135	-34.7156	-200.97	-67.1385	-63.803	-202.079	-56.0903	-85.8226	-165.981	-55.1392	-45.0226	-166.438	-25.9094	-58.6443	-174.851	8.57074	-38.4917	-143.037	-48.7453	-33.4376	-147.038	-17.664	-44.5063	-152.575	7.60928	-33.9817	-121.176	-47.7837	-18.3959	-124.584	-28.7429	-32.5575	-132.932	-0.946693	-33.2905	-143.296	-82.766	13.6308	-137.64	-88.605	44.3471	-171.573	-88.7615	24.0889	
28	0.233333	-206.988	-64.8169	29.3792	-222.456	-50.5737	15.634	-242.554	-39.0749	-5.06061	-255.064	-27.8144	-18.8808	-195.822	-67.2498	-47.4439	-203.416	-57.7772	-72.1972	-208.55	-36.722	-96.1228	-171.743	-53.4556	-50.8071	-174.471	-19.6732	-65.0354	-175.135	7.22897	-43.6557	-149.29	-49.1439	-46.6337	-151.731	-23.3863	-62.5756	-155.937	4.27573	-57.3298	-127.821	-51.6643	-28.9381	-121.291	-32.7523	-48.0918	-123.67	-8.76684	-58.5899	-144.476	-81.6111	0.235191	-144.5	-88.2441	34.9577	-176.887	-88.3416	17.0457	
29	0.241667	-206.274	-66.4541	27.7545	-224.117	-52.6822	8.41644	-247.881	-41.8563	-7.25271	-258.733	-28.2449	-22.8979	-195.574	-65.4914	-51.579	-207.018	-49.1305	-76.6806	-212.473	-19.6508	-88.2719	-168.65	-54.7146	-59.4453	-173.95	-23.9408	-72.2658	-178.762	8.71647	-49.4517	-150.351	-53.6871	-51.8803	-150.094	-30.5406	-70.4222	-151.137	-0.92673	-70.9708	-129.842	-53.1097	-34.7625	-120.317	-38.083	-55.4671	-120.231	-17.1201	-69.3283	-150.313	-83.2283	-1.02017	-146.533	-87.72	26.4405	-179.419	-89.6194	11.9757	
30	0.25	-202.822	-71.1039	22.1392	-227.951	-58.5529	6.76661	-241.791	-44.7769	-9.45294	-252.245	-30.0932	-29.2146	-199.963	-64.485	-56.3125	-202.884	-43.4474	-74.233	-203.59	-7.82166	-72.0783	-167.771	-61.8811	-58.876	-171.642	-31.7337	-77.6559	-175.595	0.245782	-61.4848	-148.519	-60.0393	-55.6229	-146.351	-35.6468	-73.9317	-155.908	-6.83698	-74.5023	-126.65	-55.5415	-37.7238	-119.412	-41.3383	-54.0685	-119.314	-16.739	-71.5601	-144.157	-87.8624	-6.63113	-142.635	-92.3195	25.2192	-176.075	-94.0019	8.74783	
31	0.258333	-201.89	-75.3212	25.7093	-227.195	-60.8813	8.8145	-237.709	-47.2431	-10.5606	-244.843	-29.6307	-30.8403	-192.504	-64.6211	-55.4252	-201.072	-38.8719	-68.9097	-200.626	-9.29327	-52.6969	-167.714	-65.5732	-62.1518	-171.593	-37.0329	-77.6872	-177.845	-3.69566	-59.4475	-144.269	-63.2618	-51.126	-146.226	-42.3069	-70.912	-154.832	-9.7324	-64.5947	-123.982	-57.3734	-32.8469	-118.341	-37.685	-53.7478	-124.798	-15.1227	-60.2953	-143.374	-90.4829	-3.91741	-142.856	-94.6443	27.5313	-178.431	-95.7439	9.3014	
32	0.266667	-198.726	-75.3901	25.4751	-220.297	-60.5859	8.73996	-231.601	-42.5684	-13.3548	-221.708	-25.1145	-32.2735	-187.864	-67.3297	-49.8029	-191.391	-35.875	-64.2187	-190.972	-15.7394	-37.7574	-160.295	-66.8883	-56.6577	-164.578	-37.9446	-74.6826	-172.587	-11.8674	-45.5071	-143.094	-62.8841	-49.2535	-142.239	-36.4851	-64.6164	-153.103	-11.9372	-43.9782	-120.056	-54.1918	-32.2586	-124.287	-32.3869	-48.9308	-138.375	-7.28732	-39.2302	-138.085	-90.1989	-2.72074	-139.173	-95.0532	29.5968	-168.223	-95.0866	12.2169	
33	0.275	-196.364	-76.5632	27.2883	-214.962	-57.5923	6.00702	-216.916	-36.3794	-19.7243	-201.764	-21.8829	-30.6481	-177.659	-64.7803	-49.0477	-182.642	-33.0991	-57.5673	-183.529	-26.8293	-24.0929	-157.845	-62.5667	-57.0386	-161.134	-32.1311	-64.3554	-166.522	-21.7285	-27.6065	-139.863	-56.3351	-48.3717	-141.501	-28.1526	-51.8889	-151.786	-20.2487	-19.1587	-117.922	-49.8124	-34.7776	-127.988	-25.844	-38.4798	-139.362	-11.3075	-15.5401	-136.307	-91.8768	-2.07589	-133.971	-96.8164	26.4101	-164.159	-98.3888	11.2933	
34	0.283333	-188.745	-75.7413	26.9138	-207.954	-53.6313	6.36855	-204.425	-34.5513	-17.2022	-182.562	-22.1796	-29.9699	-175.928	-63.9422	-46.8249	-177.997	-29.9543	-43.8072	-175.743	-35.5178	-14.8816	-155.481	-57.0507	-54.4371	-158.121	-25.7072	-46.8054	-159.645	-38.2649	-8.76334	-134.687	-52.7292	-43.7841	-143.67	-22.7966	-35.5441	-147.855	-33.4343	-2.88156	-116.106	-50.8579	-29.2001	-129.475	-23.5498	-25.7868	-139.789	-27.8241	2.02925	-131.582	-94.2639	-2.17016	-128.494	-99.062	30.9502	-158.713	-99.554	11.8627	
